<svg xmlns="http://www.w3.org/2000/svg" viewBox="0 0 100 100">
  <rect x="2" y="2" width="96" height="96" rx="22" fill="#8C2B32"/>
  <path fill="#FAF8F4" d="M18.2,72.3 18.7,72.9 19.2,73.6 19.7,74.2 20.3,74.9 20.8,75.5 21.4,76.1 21.9,76.7 22.5,77.3 23.1,77.9 23.8,78.4 24.4,79.0 25.0,79.5 25.7,80.0 26.3,80.5 27.0,81.0 27.7,81.4 28.4,81.9 29.1,82.3 29.8,82.7 30.5,83.1 31.3,83.5 32.0,83.8 32.8,84.2 33.5,84.5 34.3,84.8 35.0,85.1 35.8,85.4 36.6,85.6 37.4,85.9 38.1,86.1 38.9,86.3 39.7,86.5 40.5,86.6 41.3,86.8 42.1,86.9 42.9,87.0 43.7,87.1 44.5,87.1 45.3,87.2 46.1,87.2 47.0,87.2 47.8,87.2 48.6,87.2 49.4,87.2 50.1,87.1 50.9,87.0 51.7,86.9 52.5,86.8 53.3,86.7 54.1,86.5 54.8,86.3 55.6,86.2 56.4,86.0 57.1,85.7 57.9,85.5 58.6,85.2 59.3,84.9 60.1,84.6 60.8,84.3 61.5,84.0 62.1,83.6 62.8,83.2 63.5,82.8 64.1,82.4 64.7,82.0 65.4,81.5 66.0,81.0 66.6,80.5 67.1,80.1 67.7,79.5 68.2,79.0 68.8,78.5 69.3,77.9 69.8,77.4 70.2,76.8 70.7,76.2 71.1,75.6 71.6,75.0 72.0,74.4 72.3,73.8 72.7,73.2 73.1,72.6 73.4,71.9 73.7,71.3 74.0,70.6 74.3,70.0 74.5,69.3 74.8,68.7 75.0,68.0 75.2,67.3 75.3,66.7 75.5,66.0 75.6,65.3 75.7,64.6 75.8,64.0 75.9,63.3 76.0,62.7 76.0,62.0 76.1,61.3 76.1,60.7 76.0,60.0 76.0,59.4 76.0,58.7 75.9,58.1 75.8,57.5 75.7,56.8 75.6,56.2 75.4,55.6 75.3,55.0 75.1,54.4 75.1,54.4 75.0,55.0 74.9,55.5 74.8,56.0 74.6,56.6 74.5,57.1 74.3,57.6 74.2,58.1 74.0,58.6 73.8,59.2 73.6,59.7 73.4,60.2 73.2,60.7 73.0,61.2 72.7,61.7 72.5,62.2 72.2,62.6 72.0,63.1 71.7,63.6 71.4,64.1 71.1,64.5 70.8,65.0 70.5,65.4 70.1,65.9 69.8,66.3 69.5,66.7 69.1,67.2 68.8,67.6 68.4,68.0 68.0,68.4 67.6,68.8 67.2,69.2 66.8,69.6 66.4,69.9 66.0,70.3 65.6,70.7 65.2,71.0 64.7,71.4 64.3,71.7 63.8,72.0 63.4,72.3 62.9,72.6 62.4,72.9 62.0,73.2 61.5,73.5 61.0,73.8 60.5,74.1 60.0,74.3 59.5,74.6 59.0,74.8 58.5,75.1 57.9,75.3 57.4,75.5 56.9,75.7 56.3,75.9 55.8,76.1 55.2,76.3 54.7,76.5 54.1,76.7 53.6,76.8 53.0,77.0 52.4,77.1 51.9,77.2 51.3,77.3 50.7,77.4 50.1,77.5 49.5,77.6 48.9,77.6 48.3,77.6 47.7,77.7 47.1,77.7 46.5,77.7 45.9,77.6 45.3,77.6 44.7,77.6 44.1,77.5 43.5,77.4 42.9,77.3 42.3,77.2 41.7,77.1 41.1,77.0 40.6,76.8 40.0,76.6 39.4,76.5 38.8,76.3 38.2,76.1 37.6,75.9 37.1,75.6 36.5,75.4 36.0,75.1 35.4,74.8 34.9,74.5 34.3,74.2 33.8,73.9 33.3,73.6 32.7,73.3 32.2,72.9 31.7,72.5 31.2,72.2 30.7,71.8 30.3,71.4 29.8,71.0 29.3,70.5 28.9,70.1 28.5,69.6 28.0,69.2 27.6,68.7 27.2,68.2 26.8,67.8 26.4,67.3 26.1,66.7 25.2,65.8 24.2,65.2 23.0,64.8 21.7,64.7 20.5,65.0 19.4,65.6 18.5,66.4 17.8,67.5 17.4,68.7 17.4,69.9 17.6,71.1Z"/>
  <path fill="#FAF8F4" d="M81.8,27.7 81.3,27.1 80.8,26.4 80.3,25.8 79.7,25.1 79.2,24.5 78.6,23.9 78.1,23.3 77.5,22.7 76.9,22.1 76.2,21.6 75.6,21.0 75.0,20.5 74.3,20.0 73.7,19.5 73.0,19.0 72.3,18.6 71.6,18.1 70.9,17.7 70.2,17.3 69.5,16.9 68.7,16.5 68.0,16.2 67.2,15.8 66.5,15.5 65.7,15.2 65.0,14.9 64.2,14.6 63.4,14.4 62.6,14.1 61.9,13.9 61.1,13.7 60.3,13.5 59.5,13.4 58.7,13.2 57.9,13.1 57.1,13.0 56.3,12.9 55.5,12.9 54.7,12.8 53.9,12.8 53.0,12.8 52.2,12.8 51.4,12.8 50.6,12.8 49.9,12.9 49.1,13.0 48.3,13.1 47.5,13.2 46.7,13.3 45.9,13.5 45.2,13.7 44.4,13.8 43.6,14.0 42.9,14.3 42.1,14.5 41.4,14.8 40.7,15.1 39.9,15.4 39.2,15.7 38.5,16.0 37.9,16.4 37.2,16.8 36.5,17.2 35.9,17.6 35.3,18.0 34.6,18.5 34.0,19.0 33.4,19.5 32.9,19.9 32.3,20.5 31.8,21.0 31.2,21.5 30.7,22.1 30.2,22.6 29.8,23.2 29.3,23.8 28.9,24.4 28.4,25.0 28.0,25.6 27.7,26.2 27.3,26.8 26.9,27.4 26.6,28.1 26.3,28.7 26.0,29.4 25.7,30.0 25.5,30.7 25.2,31.3 25.0,32.0 24.8,32.7 24.7,33.3 24.5,34.0 24.4,34.7 24.3,35.4 24.2,36.0 24.1,36.7 24.0,37.3 24.0,38.0 23.9,38.7 23.9,39.3 24.0,40.0 24.0,40.6 24.0,41.3 24.1,41.9 24.2,42.5 24.3,43.2 24.4,43.8 24.6,44.4 24.7,45.0 24.9,45.6 24.9,45.6 25.0,45.0 25.1,44.5 25.2,44.0 25.4,43.4 25.5,42.9 25.7,42.4 25.8,41.9 26.0,41.4 26.2,40.8 26.4,40.3 26.6,39.8 26.8,39.3 27.0,38.8 27.3,38.3 27.5,37.8 27.8,37.4 28.0,36.9 28.3,36.4 28.6,35.9 28.9,35.5 29.2,35.0 29.5,34.6 29.9,34.1 30.2,33.7 30.5,33.3 30.9,32.8 31.2,32.4 31.6,32.0 32.0,31.6 32.4,31.2 32.8,30.8 33.2,30.4 33.6,30.1 34.0,29.7 34.4,29.3 34.8,29.0 35.3,28.6 35.7,28.3 36.2,28.0 36.6,27.7 37.1,27.4 37.6,27.1 38.0,26.8 38.5,26.5 39.0,26.2 39.5,25.9 40.0,25.7 40.5,25.4 41.0,25.2 41.5,24.9 42.1,24.7 42.6,24.5 43.1,24.3 43.7,24.1 44.2,23.9 44.8,23.7 45.3,23.5 45.9,23.3 46.4,23.2 47.0,23.0 47.6,22.9 48.1,22.8 48.7,22.7 49.3,22.6 49.9,22.5 50.5,22.4 51.1,22.4 51.7,22.4 52.3,22.3 52.9,22.3 53.5,22.3 54.1,22.4 54.7,22.4 55.3,22.4 55.9,22.5 56.5,22.6 57.1,22.7 57.7,22.8 58.3,22.9 58.9,23.0 59.4,23.2 60.0,23.4 60.6,23.5 61.2,23.7 61.8,23.9 62.4,24.1 62.9,24.4 63.5,24.6 64.0,24.9 64.6,25.2 65.1,25.5 65.7,25.8 66.2,26.1 66.7,26.4 67.3,26.7 67.8,27.1 68.3,27.5 68.8,27.8 69.3,28.2 69.7,28.6 70.2,29.0 70.7,29.5 71.1,29.9 71.5,30.4 72.0,30.8 72.4,31.3 72.8,31.8 73.2,32.2 73.6,32.7 73.9,33.3 74.8,34.2 75.8,34.8 77.0,35.2 78.3,35.3 79.5,35.0 80.6,34.4 81.5,33.6 82.2,32.5 82.6,31.3 82.6,30.1 82.4,28.9Z"/>
</svg>
